<?xml version="1.0" encoding="iso-8859-1"?>
<!-- Generator: Adobe Illustrator 19.0.0, SVG Export Plug-In . SVG Version: 6.00 Build 0)  -->
<svg version="1.1" id="Capa_1" xmlns="http://www.w3.org/2000/svg" xmlns:xlink="http://www.w3.org/1999/xlink" x="0px" y="0px"
	 viewBox="0 0 512.004 512.004" style="enable-background:new 0 0 512.004 512.004;" xml:space="preserve">
<g>
	<g transform="translate(1 1)">
		<ellipse style="fill:#A4C2F7;" cx="272.579" cy="254.999" rx="230.912" ry="247.467"/>
		<ellipse style="fill:#FFFFFF;" cx="238.445" cy="254.999" rx="230.912" ry="247.467"/>
		<ellipse style="fill:#E3E7F2;" cx="255" cy="254.999" rx="221.867" ry="247.467"/>
		<g>
			<path style="fill:#A4C2F7;" d="M402.797,56.514l-1.707,2.219l-60.928,21.333c-9.452,7.728-18.348,16.112-26.624,25.088
				c-3.072,5.291-23.296,13.312-23.296,13.312s-61.525,4.267-68.437,9.045c-6.827,4.779-6.229,32.683-6.229,32.683l23.381,45.056
				c1.734,3.159,5.665,4.369,8.875,2.731c3.499-1.792,7.168-4.011,10.837-5.888c4.431-3.062,9.865-4.314,15.189-3.499
				c3.589,1.022,6.357,3.887,7.253,7.509c0.125,4.191-1.665,8.212-4.864,10.923c-6.059,6.571-11.947,13.227-17.92,20.053
				c-6.144,7.083-12.203,14.08-18.347,21.163c-1.195,1.451-2.475,2.816-3.669,4.267c-4.656,6.559-6.639,14.645-5.547,22.613
				l0.853,5.803c1.141,8.102-0.976,16.326-5.888,22.869l-16.896,22.869c-1.126,1.46-2.098,3.033-2.901,4.693l-18.432,37.291
				c-1.263,2.671-3.958,4.368-6.912,4.352h-17.237c-2.564-0.014-4.905-1.465-6.059-3.755c-1.433-3.053-0.858-6.672,1.451-9.131
				l1.707-1.621c1.951-1.936,2.731-4.761,2.048-7.424L146.2,295.106c-0.085-0.256-0.085-0.512-0.171-0.768l-11.691-31.488
				c-0.851-2.264-1.285-4.664-1.28-7.083v-1.536c0.033-7.646-4.264-14.653-11.093-18.091l-1.024-0.512
				c-3.442-1.771-7.332-2.484-11.179-2.048l-22.955,2.56c-6.57,0.765-13.084-1.834-17.323-6.912l-14.507-17.152
				c-3.077-3.656-4.769-8.278-4.779-13.056v-15.104c-0.036-5.333,2.052-10.46,5.803-14.251l18.603-18.859
				c1.134-1.166,2.136-2.454,2.987-3.84l6.059-10.24c3.551-6.05,10.051-9.756,17.067-9.728h24.661
				c5.657-0.045,11.05,2.387,14.763,6.656c3.787,4.156,9.14,6.539,14.763,6.571h9.131l7.851-26.027
				c-5.829-5.328-10.656-11.657-14.251-18.688c-3.755-9.045-24.917-17.579-30.208-18.091c-8.654-4.495-16.615-10.215-23.637-16.981
				l-0.597-0.768c87.757-68.295,210.305-69.622,299.52-3.243L402.797,56.514z"/>
			<path style="fill:#A4C2F7;" d="M502.467,254.999c0.059,95.664-55.08,182.776-141.568,223.659l-3.755-7.936l-28.843-61.184
				c-0.439-1.055-0.671-2.185-0.683-3.328v-15.872c0.021-3.33-2.067-6.309-5.205-7.424l-14.848-5.205
				c-1.194-0.436-2.273-1.136-3.157-2.048l-4.693-5.035c-1.795-1.97-2.462-4.718-1.771-7.291c0.691-2.573,2.645-4.618,5.185-5.424
				L338.2,347.33c2.498-0.714,5.186-0.208,7.253,1.365l23.637,18.859c1.415,1.102,3.156,1.702,4.949,1.707h13.995
				c2.655,0.049,5.152-1.26,6.622-3.473c1.469-2.212,1.707-5.022,0.632-7.45l-20.395-43.264c-0.933-1.967-0.982-4.238-0.135-6.243
				c0.848-2.005,2.511-3.552,4.572-4.253l6.656-2.304c3.94-1.346,6.095-5.58,4.864-9.557l-6.997-22.528
				c-3.394-10.723-1.896-22.396,4.096-31.915l2.816-4.437c1.459-2.32,4.001-3.736,6.741-3.755h9.557
				c2.062,0.03,4.05-0.765,5.523-2.206c1.474-1.442,2.311-3.412,2.327-5.474v-8.704c0.011-3.947,2.988-7.255,6.912-7.68
				l44.032-5.803c4.755-0.724,9.616,0.146,13.824,2.475l3.413,1.792c3.032,1.617,6.382,2.549,9.813,2.731l4.949,0.171
				C500.954,223.066,502.497,239.014,502.467,254.999L502.467,254.999z"/>
		</g>
		<path style="fill:#7FACFA;" d="M502.467,254.999c0.059,95.664-55.08,182.776-141.568,223.659l-3.755-7.936
			c75.132-45.787,120.616-127.742,119.723-215.723c0.005-18.476-1.969-36.899-5.888-54.955c3.035,0.358,5.983,1.254,8.704,2.645
			l3.413,1.792c3.032,1.617,6.382,2.549,9.813,2.731l4.949,0.171C500.954,223.066,502.497,239.014,502.467,254.999L502.467,254.999z
			"/>
	</g>
	<g>
		<path style="fill:#428DFF;" d="M256,511.999C128.375,511.681,20.365,417.655,2.467,291.291c-0.608-4.653,2.654-8.923,7.303-9.56
			c4.649-0.637,8.94,2.599,9.605,7.243c17.326,124.344,127.93,214.07,253.174,205.386
			c125.245-8.684,222.406-112.816,222.406-238.361S397.794,26.322,272.549,17.638S36.701,98.68,19.375,223.024
			c-0.666,4.645-4.957,7.88-9.605,7.243c-4.649-0.637-7.911-4.908-7.303-9.56C21.331,85.223,143.38-11.492,279.59,1.108
			s238.447,130.063,232.137,266.709C505.418,404.464,392.792,512.005,256,511.999z"/>
		<path style="fill:#428DFF;" d="M181.575,392.533h-17.229c-5.756-0.012-11.018-3.255-13.617-8.392
			c-3.028-6.249-1.929-13.713,2.771-18.825l1.621-1.567l-16.204-65.592c-0.025-0.092-0.058-0.25-0.096-0.425l-11.504-30.908
			c-1.203-3.217-1.815-6.624-1.808-10.058v-1.533c0.048-4.409-2.405-8.464-6.333-10.467l-0.837-0.383
			c-2.015-1.112-4.325-1.572-6.613-1.317l-23,2.558c-9.39,1.052-18.684-2.656-24.771-9.883l-14.517-17.159
			c-4.359-5.203-6.755-11.771-6.771-18.558v-15.108c-0.052-7.583,2.917-14.876,8.25-20.267l18.667-18.85
			c0.678-0.714,1.277-1.5,1.787-2.342l5.917-10.058c5.11-8.627,14.389-13.922,24.417-13.933h24.7
			c8.113-0.013,15.836,3.478,21.187,9.575c2.16,2.318,5.182,3.639,8.35,3.65h2.754l4.563-15.042
			c-5.172-5.204-9.401-11.266-12.5-17.917c-6.429-6.28-14.434-10.708-23.171-12.817c-3.612-0.4-8.996-2.217-28.367-18.983
			c-2.32-1.984-3.403-5.057-2.84-8.057s2.686-5.472,5.568-6.48c2.882-1.008,6.082-0.4,8.393,1.595
			c5.961,5.742,12.558,10.786,19.663,15.033c6.662,1.05,30.975,9.758,36.542,23.225c3.084,5.883,7.183,11.176,12.108,15.633
			c2.437,2.217,3.383,5.638,2.429,8.792l-7.892,26.025c-1.09,3.598-4.407,6.059-8.166,6.059h-9.084
			c-8.02-0.027-15.662-3.415-21.067-9.342c-2.113-2.48-5.213-3.901-8.471-3.883h-24.7c-3.992-0.03-7.695,2.078-9.708,5.525
			l-6.025,10.233c-1.209,2.005-2.645,3.865-4.279,5.542l-18.658,18.842c-2.152,2.199-3.34,5.165-3.3,8.242v15.108
			c0.008,2.775,0.99,5.459,2.775,7.583l14.475,17.117c2.397,2.879,6.081,4.36,9.804,3.942l23.054-2.567
			c5.503-0.624,11.068,0.406,15.983,2.958l0.75,0.333c9.836,4.846,16.046,14.877,16,25.842v1.533
			c-0.007,1.373,0.233,2.737,0.708,4.025l11.746,31.575c0.217,0.636,0.385,1.288,0.5,1.95h-0.012l16.262,65.7
			c1.38,5.535-0.223,11.389-4.229,15.45h14.025l17.73-36.892c1.032-2.145,2.283-4.178,3.733-6.067l16.825-22.783
			c3.575-4.764,5.111-10.753,4.271-16.65l-0.837-5.717c-1.439-10.173,1.113-20.507,7.121-28.842c0.983-1.217,1.663-2,2.346-2.783
			l20.105-23.225c6.008-6.917,12-13.617,18.075-20.25c1.212-1.07,2.161-2.404,2.775-3.9c-0.438-0.259-0.905-0.466-1.392-0.617
			c-1.804-0.517-5.475,1.292-8.429,2.775c-1.983,1.017-3.633,1.942-5.275,2.859c-2.013,1.125-4.013,2.242-5.988,3.233
			c-7.323,3.741-16.293,0.933-20.175-6.317l-23.483-45.167c-0.604-1.16-0.934-2.443-0.963-3.75
			c-0.313-14.817,1.154-33.758,9.938-39.875c7.175-4.975,42.442-8.417,71.346-10.45c6.477-2.385,12.605-5.628,18.221-9.642
			c8.542-9.786,17.955-18.776,28.124-26.859c0.794-0.672,1.703-1.195,2.683-1.542l60.946-21.333c4.446-1.541,9.3,0.805,10.855,5.246
			c1.555,4.441-0.777,9.303-5.213,10.871l-59.454,20.808c-8.352,6.791-16.234,14.141-23.592,22
			c-3.771,6.35-17.029,12.65-27.479,16.8c-0.818,0.322-1.681,0.519-2.558,0.583c-21.429,1.035-42.762,3.546-63.846,7.517
			c-2.251,7.641-3.241,15.599-2.929,23.558l21.55,41.45c1.217-0.65,2.446-1.342,3.683-2.033c1.817-1.017,3.646-2.033,5.475-2.975
			c6.381-4.153,14.145-5.615,21.6-4.067c6.495,1.907,11.466,7.154,13.021,13.742c1.061,7-1.55,14.053-6.913,18.675
			c-5.921,6.458-11.824,13.069-17.708,19.833l-18.308,21.133c-0.513,0.625-1.175,1.383-1.838,2.142l-1.675,1.958
			c-3.229,4.683-4.568,10.413-3.75,16.042l0.838,5.733c1.481,10.345-1.208,20.854-7.475,29.217l-16.85,22.824
			c-0.785,1.011-1.463,2.1-2.025,3.25l-18.496,37.45C193.452,389.008,187.783,392.539,181.575,392.533z"/>
		<path style="fill:#428DFF;" d="M361.904,488.191c-3.304,0.002-6.311-1.904-7.721-4.892l-32.6-69.117
			c-0.958-2.202-1.468-4.573-1.5-6.975v-15.867l-14.342-4.583c-2.408-0.861-4.589-2.257-6.379-4.083l-4.887-5.233
			c-3.795-4.114-5.221-9.884-3.78-15.292c1.441-5.408,5.55-9.703,10.889-11.383l35.154-10.6c5.099-1.505,10.61-0.496,14.846,2.717
			l23.829,19.008l12.571-0.15l-19.808-42.025c-1.953-4.109-2.077-8.853-0.341-13.058c1.78-4.269,5.284-7.585,9.646-9.125
			l5.979-2.067l-6.754-21.742c-4.129-13.097-2.298-27.347,5.008-38.975l2.846-4.483c3.036-4.776,8.291-7.683,13.95-7.717h8.875
			v-7.85c-0.028-8.253,6.151-15.207,14.35-16.15l44.012-5.792c6.487-0.879,13.086,0.296,18.871,3.358l3.446,1.808
			c1.939,1.043,4.085,1.646,6.283,1.766l4.8,0.167c2.261,0.075,4.4,1.045,5.945,2.697c1.546,1.652,2.372,3.85,2.296,6.111
			c-0.013,2.283-0.965,4.461-2.633,6.02c-1.668,1.559-3.905,2.363-6.184,2.222l-4.95-0.167c-4.718-0.225-9.328-1.492-13.5-3.708
			l-3.404-1.783c-2.642-1.434-5.672-1.989-8.65-1.583l-43.617,5.742v7.992c-0.057,8.999-7.388,16.254-16.388,16.217h-9.554
			l-2.35,4.225c-4.638,7.391-5.797,16.446-3.171,24.767L400,291.182c2.553,8.33-1.901,17.194-10.108,20.117l-5.862,2.025
			l19.975,42.375c2.33,5.042,1.915,10.927-1.1,15.592c-3.042,4.702-8.271,7.529-13.871,7.5h-13.992
			c-3.754-0.002-7.397-1.277-10.333-3.617l-23.575-18.808l-33.338,10.342l3.854,4.133l14.588,5.025
			c6.551,2.323,10.924,8.525,10.913,15.475v15.867l32.467,68.808c1.247,2.643,1.055,5.74-0.508,8.209
			C367.545,486.693,364.826,488.19,361.904,488.191L361.904,488.191z M383.738,296.366l0.017,0.042L383.738,296.366z"/>
		<circle style="fill:#428DFF;" cx="8.533" cy="255.999" r="8.533"/>
	</g>
</g>
<g>
</g>
<g>
</g>
<g>
</g>
<g>
</g>
<g>
</g>
<g>
</g>
<g>
</g>
<g>
</g>
<g>
</g>
<g>
</g>
<g>
</g>
<g>
</g>
<g>
</g>
<g>
</g>
<g>
</g>
</svg>
