<svg height="966pt" viewBox="0.00 0.00 397.00 994.00" width="386pt" xmlns="http://www.w3.org/2000/svg" xmlns:xlink="http://www.w3.org/1999/xlink">
<g class="graph" id="graph0" transform="scale(.9722 .9722) rotate(0) translate(4 990)">
<title>G</title>
<polygon fill="#ffffff" points="-4,4 -4,-990 393,-990 393,4 -4,4" stroke="transparent"/>
<!-- 140171480676672 -->
<g class="node" id="node1">
<title>140171480676672</title>
<polygon fill="none" points="166,-949.5 166,-985.5 326,-985.5 326,-949.5 166,-949.5" stroke="#000000"/>
<text fill="#000000" font-family="Times,serif" font-size="14.00" text-anchor="middle" x="246" y="-963.8">input_1: InputLayer</text>
</g>
<!-- 140171627739960 -->
<g class="node" id="node2">
<title>140171627739960</title>
<polygon fill="none" points="120.5,-876.5 120.5,-912.5 371.5,-912.5 371.5,-876.5 120.5,-876.5" stroke="#000000"/>
<text fill="#000000" font-family="Times,serif" font-size="14.00" text-anchor="middle" x="246" y="-890.8">zero_padding2d: ZeroPadding2D</text>
</g>
<!-- 140171480676672&#45;&gt;140171627739960 -->
<g class="edge" id="edge1">
<title>140171480676672-&gt;140171627739960</title>
<path d="M246,-949.4551C246,-941.3828 246,-931.6764 246,-922.6817" fill="none" stroke="#000000"/>
<polygon fill="#000000" points="249.5001,-922.5903 246,-912.5904 242.5001,-922.5904 249.5001,-922.5903" stroke="#000000"/>
</g>
<!-- 140171480633016 -->
<g class="node" id="node3">
<title>140171480633016</title>
<polygon fill="none" points="164,-803.5 164,-839.5 328,-839.5 328,-803.5 164,-803.5" stroke="#000000"/>
<text fill="#000000" font-family="Times,serif" font-size="14.00" text-anchor="middle" x="246" y="-817.8">conv1/conv: Conv2D</text>
</g>
<!-- 140171627739960&#45;&gt;140171480633016 -->
<g class="edge" id="edge2">
<title>140171627739960-&gt;140171480633016</title>
<path d="M246,-876.4551C246,-868.3828 246,-858.6764 246,-849.6817" fill="none" stroke="#000000"/>
<polygon fill="#000000" points="249.5001,-849.5903 246,-839.5904 242.5001,-849.5904 249.5001,-849.5903" stroke="#000000"/>
</g>
<!-- 140171480668704 -->
<g class="node" id="node4">
<title>140171480668704</title>
<polygon fill="none" points="128.5,-730.5 128.5,-766.5 363.5,-766.5 363.5,-730.5 128.5,-730.5" stroke="#000000"/>
<text fill="#000000" font-family="Times,serif" font-size="14.00" text-anchor="middle" x="246" y="-744.8">conv1/bn: BatchNormalization</text>
</g>
<!-- 140171480633016&#45;&gt;140171480668704 -->
<g class="edge" id="edge3">
<title>140171480633016-&gt;140171480668704</title>
<path d="M246,-803.4551C246,-795.3828 246,-785.6764 246,-776.6817" fill="none" stroke="#000000"/>
<polygon fill="#000000" points="249.5001,-776.5903 246,-766.5904 242.5001,-776.5904 249.5001,-776.5903" stroke="#000000"/>
</g>
<!-- 140171480668648 -->
<g class="node" id="node5">
<title>140171480668648</title>
<polygon fill="none" points="158.5,-657.5 158.5,-693.5 333.5,-693.5 333.5,-657.5 158.5,-657.5" stroke="#000000"/>
<text fill="#000000" font-family="Times,serif" font-size="14.00" text-anchor="middle" x="246" y="-671.8">conv1/relu: Activation</text>
</g>
<!-- 140171480668704&#45;&gt;140171480668648 -->
<g class="edge" id="edge4">
<title>140171480668704-&gt;140171480668648</title>
<path d="M246,-730.4551C246,-722.3828 246,-712.6764 246,-703.6817" fill="none" stroke="#000000"/>
<polygon fill="#000000" points="249.5001,-703.5903 246,-693.5904 242.5001,-703.5904 249.5001,-703.5903" stroke="#000000"/>
</g>
<!-- 140171479937600 -->
<g class="node" id="node6">
<title>140171479937600</title>
<polygon fill="none" points="112.5,-584.5 112.5,-620.5 379.5,-620.5 379.5,-584.5 112.5,-584.5" stroke="#000000"/>
<text fill="#000000" font-family="Times,serif" font-size="14.00" text-anchor="middle" x="246" y="-598.8">zero_padding2d_1: ZeroPadding2D</text>
</g>
<!-- 140171480668648&#45;&gt;140171479937600 -->
<g class="edge" id="edge5">
<title>140171480668648-&gt;140171479937600</title>
<path d="M246,-657.4551C246,-649.3828 246,-639.6764 246,-630.6817" fill="none" stroke="#000000"/>
<polygon fill="#000000" points="249.5001,-630.5903 246,-620.5904 242.5001,-630.5904 249.5001,-630.5903" stroke="#000000"/>
</g>
<!-- 140171479937096 -->
<g class="node" id="node7">
<title>140171479937096</title>
<polygon fill="none" points="162,-511.5 162,-547.5 330,-547.5 330,-511.5 162,-511.5" stroke="#000000"/>
<text fill="#000000" font-family="Times,serif" font-size="14.00" text-anchor="middle" x="246" y="-525.8">pool1: MaxPooling2D</text>
</g>
<!-- 140171479937600&#45;&gt;140171479937096 -->
<g class="edge" id="edge6">
<title>140171479937600-&gt;140171479937096</title>
<path d="M246,-584.4551C246,-576.3828 246,-566.6764 246,-557.6817" fill="none" stroke="#000000"/>
<polygon fill="#000000" points="249.5001,-557.5903 246,-547.5904 242.5001,-557.5904 249.5001,-557.5903" stroke="#000000"/>
</g>
<!-- 140171473747472 -->
<g class="node" id="node8">
<title>140171473747472</title>
<polygon fill="none" points="0,-438.5 0,-474.5 310,-474.5 310,-438.5 0,-438.5" stroke="#000000"/>
<text fill="#000000" font-family="Times,serif" font-size="14.00" text-anchor="middle" x="155" y="-452.8">conv2_block1_0_bn: BatchNormalization</text>
</g>
<!-- 140171479937096&#45;&gt;140171473747472 -->
<g class="edge" id="edge7">
<title>140171479937096-&gt;140171473747472</title>
<path d="M223.5056,-511.4551C212.0211,-502.2422 197.883,-490.9006 185.4389,-480.918" fill="none" stroke="#000000"/>
<polygon fill="#000000" points="187.5414,-478.1177 177.551,-474.5904 183.1612,-483.5779 187.5414,-478.1177" stroke="#000000"/>
</g>
<!-- 140171164887024 -->
<g class="node" id="node14">
<title>140171164887024</title>
<polygon fill="none" points="119,-.5 119,-36.5 389,-36.5 389,-.5 119,-.5" stroke="#000000"/>
<text fill="#000000" font-family="Times,serif" font-size="14.00" text-anchor="middle" x="254" y="-14.8">conv2_block1_concat: Concatenate</text>
</g>
<!-- 140171479937096&#45;&gt;140171164887024 -->
<g class="edge" id="edge13">
<title>140171479937096-&gt;140171164887024</title>
<path d="M280.2754,-511.3494C294.3219,-502.2401 309.4841,-489.9409 319,-475 341.3122,-439.9678 338,-425.0342 338,-383.5 338,-383.5 338,-383.5 338,-164.5 338,-121.7033 330.3257,-109.5119 308,-73 301.4315,-62.2577 292.3508,-52.0175 283.5089,-43.3734" fill="none" stroke="#000000"/>
<polygon fill="#000000" points="285.885,-40.8034 276.1983,-36.5118 281.0945,-45.9074 285.885,-40.8034" stroke="#000000"/>
</g>
<!-- 140171473746856 -->
<g class="node" id="node9">
<title>140171473746856</title>
<polygon fill="none" points="30,-365.5 30,-401.5 280,-401.5 280,-365.5 30,-365.5" stroke="#000000"/>
<text fill="#000000" font-family="Times,serif" font-size="14.00" text-anchor="middle" x="155" y="-379.8">conv2_block1_0_relu: Activation</text>
</g>
<!-- 140171473747472&#45;&gt;140171473746856 -->
<g class="edge" id="edge8">
<title>140171473747472-&gt;140171473746856</title>
<path d="M155,-438.4551C155,-430.3828 155,-420.6764 155,-411.6817" fill="none" stroke="#000000"/>
<polygon fill="#000000" points="158.5001,-411.5903 155,-401.5904 151.5001,-411.5904 158.5001,-411.5903" stroke="#000000"/>
</g>
<!-- 140171473785632 -->
<g class="node" id="node10">
<title>140171473785632</title>
<polygon fill="none" points="35.5,-292.5 35.5,-328.5 274.5,-328.5 274.5,-292.5 35.5,-292.5" stroke="#000000"/>
<text fill="#000000" font-family="Times,serif" font-size="14.00" text-anchor="middle" x="155" y="-306.8">conv2_block1_1_conv: Conv2D</text>
</g>
<!-- 140171473746856&#45;&gt;140171473785632 -->
<g class="edge" id="edge9">
<title>140171473746856-&gt;140171473785632</title>
<path d="M155,-365.4551C155,-357.3828 155,-347.6764 155,-338.6817" fill="none" stroke="#000000"/>
<polygon fill="#000000" points="158.5001,-338.5903 155,-328.5904 151.5001,-338.5904 158.5001,-338.5903" stroke="#000000"/>
</g>
<!-- 140171425220536 -->
<g class="node" id="node11">
<title>140171425220536</title>
<polygon fill="none" points="0,-219.5 0,-255.5 310,-255.5 310,-219.5 0,-219.5" stroke="#000000"/>
<text fill="#000000" font-family="Times,serif" font-size="14.00" text-anchor="middle" x="155" y="-233.8">conv2_block1_1_bn: BatchNormalization</text>
</g>
<!-- 140171473785632&#45;&gt;140171425220536 -->
<g class="edge" id="edge10">
<title>140171473785632-&gt;140171425220536</title>
<path d="M155,-292.4551C155,-284.3828 155,-274.6764 155,-265.6817" fill="none" stroke="#000000"/>
<polygon fill="#000000" points="158.5001,-265.5903 155,-255.5904 151.5001,-265.5904 158.5001,-265.5903" stroke="#000000"/>
</g>
<!-- 140171425235128 -->
<g class="node" id="node12">
<title>140171425235128</title>
<polygon fill="none" points="45,-146.5 45,-182.5 295,-182.5 295,-146.5 45,-146.5" stroke="#000000"/>
<text fill="#000000" font-family="Times,serif" font-size="14.00" text-anchor="middle" x="170" y="-160.8">conv2_block1_1_relu: Activation</text>
</g>
<!-- 140171425220536&#45;&gt;140171425235128 -->
<g class="edge" id="edge11">
<title>140171425220536-&gt;140171425235128</title>
<path d="M158.7079,-219.4551C160.3846,-211.2951 162.4044,-201.4652 164.2694,-192.3887" fill="none" stroke="#000000"/>
<polygon fill="#000000" points="167.6984,-193.0902 166.2828,-182.5904 160.8416,-191.6812 167.6984,-193.0902" stroke="#000000"/>
</g>
<!-- 140171425219584 -->
<g class="node" id="node13">
<title>140171425219584</title>
<polygon fill="none" points="60.5,-73.5 60.5,-109.5 299.5,-109.5 299.5,-73.5 60.5,-73.5" stroke="#000000"/>
<text fill="#000000" font-family="Times,serif" font-size="14.00" text-anchor="middle" x="180" y="-87.8">conv2_block1_2_conv: Conv2D</text>
</g>
<!-- 140171425235128&#45;&gt;140171425219584 -->
<g class="edge" id="edge12">
<title>140171425235128-&gt;140171425219584</title>
<path d="M172.4719,-146.4551C173.5777,-138.3828 174.9073,-128.6764 176.1395,-119.6817" fill="none" stroke="#000000"/>
<polygon fill="#000000" points="179.6322,-119.9729 177.5219,-109.5904 172.697,-119.0228 179.6322,-119.9729" stroke="#000000"/>
</g>
<!-- 140171425219584&#45;&gt;140171164887024 -->
<g class="edge" id="edge14">
<title>140171425219584-&gt;140171164887024</title>
<path d="M198.2921,-73.4551C207.3644,-64.5054 218.4729,-53.547 228.3768,-43.7769" fill="none" stroke="#000000"/>
<polygon fill="#000000" points="231.0008,-46.1049 235.6618,-36.5904 226.0848,-41.1215 231.0008,-46.1049" stroke="#000000"/>
</g>
</g>
</svg>